<svg width="422" height="261" viewBox="0 0 422 261" fill="none" xmlns="http://www.w3.org/2000/svg">
<path fill-rule="evenodd" clip-rule="evenodd" d="M185.237 211.945C164.633 214.673 142.987 209.886 124.746 196.845C86.6106 169.58 77.7977 116.563 105.062 78.4269C120.758 56.4732 144.987 44.2371 170 43.0071C129.808 26.3672 82.0271 38.9088 55.6428 75.8133C24.9125 118.797 34.8456 178.554 77.8292 209.284C110.649 232.748 153.247 232.505 185.237 211.945Z" fill="#E8F904"/>
<path d="M133.707 139.222H151.309V147H123.595V105.055H133.707V139.222ZM179.973 139.164H166.116L163.696 147H152.893L168.277 105.055H177.784L193.283 147H182.422L179.973 139.164ZM168.536 131.357H177.553L173.03 116.809L168.536 131.357ZM221.169 139.222H238.771V147H211.058V105.055H221.169V139.222ZM275.243 105.055V132.509C275.243 135.621 274.581 138.319 273.255 140.604C271.93 142.871 270.029 144.599 267.551 145.79C265.074 146.981 262.145 147.576 258.765 147.576C253.656 147.576 249.632 146.251 246.694 143.601C243.755 140.95 242.257 137.32 242.2 132.711V105.055H252.369V132.913C252.484 137.503 254.616 139.798 258.765 139.798C260.858 139.798 262.443 139.222 263.518 138.069C264.594 136.917 265.131 135.044 265.131 132.452V105.055H275.243ZM316.612 147H306.558L291.693 120.899V147H281.581V105.055H291.693L306.529 131.155V105.055H316.612V147ZM347.351 139.164H333.494L331.074 147H320.271L335.655 105.055H345.162L360.661 147H349.8L347.351 139.164ZM335.914 131.357H344.931L340.408 116.809L335.914 131.357Z" fill="black"/>
</svg>
